<?xml version="1.0" standalone="no"?>
<!DOCTYPE svg PUBLIC "-//W3C//DTD SVG 20010904//EN"
 "http://www.w3.org/TR/2001/REC-SVG-20010904/DTD/svg10.dtd">
<svg version="1.0" xmlns="http://www.w3.org/2000/svg"
 width="100.000000pt" height="100.000000pt" viewBox="0 0 100.000000 100.000000"
 preserveAspectRatio="xMidYMid meet">

<g transform="translate(0.000000,100.000000) scale(0.100000,-0.100000)"
fill="#000000" stroke="none">
<path d="M130 473 l0 -350 23 -21 c111 -105 544 -109 666 -6 l31 26 0 344 0
344 -38 -25 c-63 -41 -180 -66 -317 -65 -171 0 -281 27 -342 83 l-23 20 0
-350z m218 61 c15 -4 22 -14 22 -30 0 -20 -4 -23 -41 -21 -56 3 -60 -16 -10
-47 70 -44 79 -101 21 -131 -56 -29 -120 -13 -120 30 0 27 9 32 27 14 13 -13
65 -8 70 8 2 6 -14 21 -35 33 -73 41 -82 108 -19 135 36 16 52 17 85 9z m238
-25 c51 -48 54 -124 7 -180 l-26 -30 29 -30 28 -29 -42 0 c-33 0 -45 5 -57 24
-9 13 -28 27 -43 31 -110 27 -118 190 -12 234 35 15 89 6 116 -20z m134 -72
l0 -93 40 4 c39 4 40 3 40 -27 l0 -31 -70 0 -70 0 0 120 0 120 30 0 30 0 0
-93z"/>
<path d="M472 468 c-25 -31 -17 -94 13 -114 23 -15 27 -15 50 0 20 13 25 25
25 59 0 24 -5 48 -12 55 -16 16 -63 15 -76 0z"/>
</g>
</svg>
